<?xml version="1.0" encoding="iso-8859-1"?>
<!-- Uploaded to: SVG Repo, www.svgrepo.com, Generator: SVG Repo Mixer Tools -->
<svg version="1.1" id="Layer_1" xmlns="http://www.w3.org/2000/svg" xmlns:xlink="http://www.w3.org/1999/xlink" 
	 viewBox="0 0 511.999 511.999" xml:space="preserve">
<polygon style="fill:#FFCF65;" points="256.005,8.016 33.67,196.141 478.329,196.141 "/>
<polygon style="fill:#FFDC78;" points="255.999,8.016 255.999,196.141 367.164,196.141 "/>
<polygon style="fill:#FFB450;" points="255.999,8.016 144.834,196.141 33.67,196.141 "/>
<rect x="187.59" y="324.409" style="fill:#E6AF78;" width="136.818" height="94.063"/>
<path style="fill:#D29B6E;" d="M324.409,324.409c0,0-34.205,76.96-136.818,76.96v-76.96H324.409z"/>
<path style="fill:#F0C087;" d="M350.062,196.141v84.761c0,16.57-8.002,32.119-21.486,41.75l-29.453,21.038
	c-5.801,4.144-12.752,6.372-19.881,6.372h-46.486c-7.13,0-14.079-2.228-19.881-6.372l-29.453-21.038
	c-13.483-9.631-21.486-25.181-21.486-41.75v-84.761"/>
<path style="fill:#736F7B;" d="M426.768,403.443l-76.706-19.176l-12.145-12.146c-2.882-2.882-7.399-3.33-10.79-1.069l-71.127,47.419
	l-71.127-47.418c-3.392-2.261-7.908-1.814-10.79,1.069l-12.145,12.145l-76.706,19.176c-15.225,3.807-25.908,17.488-25.908,33.184
	v50.254c0,9.445,7.658,17.102,17.102,17.102h359.148c9.445,0,17.102-7.658,17.102-17.102v-50.254
	C452.676,420.931,441.993,407.25,426.768,403.443z"/>
<g>
	<path style="fill:#625D6B;" d="M435.574,503.983c9.445,0,17.102-7.658,17.102-17.102v-50.254c0-9.583-4.017-18.383-10.582-24.674
		l-50.313,50.313c-4.81,4.811-7.513,11.336-7.513,18.14v23.578H435.574z"/>
	<path style="fill:#625D6B;" d="M76.425,503.983c-9.445,0-17.102-7.658-17.102-17.102v-50.254c0-9.583,4.017-18.383,10.582-24.674
		l50.313,50.313c4.81,4.811,7.513,11.336,7.513,18.14v23.578H76.425z"/>
	<path style="fill:#625D6B;" d="M255.999,418.471l-71.127-47.418c-3.392-2.261-7.908-1.814-10.789,1.069l-12.146,12.145
		l46.014,61.351c2.897,3.862,8.413,4.562,12.183,1.547L255.999,418.471z"/>
	<path style="fill:#625D6B;" d="M255.999,418.471l71.127-47.418c3.392-2.261,7.908-1.814,10.789,1.069l12.146,12.145l-46.014,61.351
		c-2.897,3.862-8.413,4.562-12.183,1.547L255.999,418.471z"/>
</g>
<path style="fill:#E6AF78;" d="M161.937,196.141v84.761c0,16.569,8.002,32.119,21.485,41.75l29.453,21.038
	c5.801,4.144,12.752,6.371,19.88,6.371h14.693c-17.102,0-34.205-34.205-34.205-59.858v-59.858c0-4.722,3.829-8.551,8.551-8.551
	h128.267V196.14H161.937V196.141z"/>
<path d="M483.508,190.022L261.182,1.897c-2.989-2.529-7.367-2.529-10.357,0L28.492,190.022c-2.567,2.173-3.506,5.719-2.349,8.877
	s4.163,5.259,7.527,5.259h62.047c7.075,51.643,36.862,97.38,80.746,123.363c0.12,0.071,0.246,0.122,0.368,0.186
	c0.637,0.496,1.27,0.997,1.93,1.47l0.811,0.579v31.877c-4.089,0.14-8.11,1.769-11.16,4.82l-10.575,10.576l-74.55,18.637
	c-18.831,4.708-31.981,21.551-31.981,40.961v50.254c0,13.851,11.268,25.119,25.119,25.119h359.148
	c13.851,0,25.119-11.268,25.119-25.119v-50.254c0-19.41-13.151-36.254-31.981-40.961l-74.551-18.638l-10.575-10.576
	c-3.051-3.051-7.072-4.68-11.16-4.82v-31.877l0.811-0.579c0.604-0.432,1.181-0.891,1.766-1.344c0.013-0.007,0.027-0.013,0.041-0.02
	c44.168-25.939,74.137-71.786,81.24-123.655h62.046c3.364,0,6.371-2.1,7.527-5.259C487.014,195.741,486.076,192.195,483.508,190.022
	z M264.016,188.125V37.337l89.1,150.788H264.016z M342.045,280.904c0,13.95-6.777,27.119-18.128,35.226l-29.453,21.038
	c-4.468,3.191-9.731,4.877-15.221,4.877h-46.486c-5.49,0-10.754-1.687-15.221-4.877l-29.453-21.038
	c-11.352-8.108-18.128-21.276-18.128-35.226v-76.745h172.092L342.045,280.904L342.045,280.904z M158.884,188.125l89.099-150.779
	v150.779H158.884z M224.965,44.782L140.26,188.125h-37.346c-0.007,0-0.016,0-0.024,0H55.555L224.965,44.782z M111.903,204.158
	h42.017v76.744c0,3.156,0.277,6.279,0.77,9.351C132.07,267.294,116.883,237.127,111.903,204.158z M179.751,377.79
	c0.179-0.18,0.462-0.208,0.674-0.067l62.005,41.336l-27.305,21.845c-0.044,0.035-0.173,0.142-0.401,0.112
	c-0.224-0.028-0.326-0.165-0.36-0.21l-41.842-55.789L179.751,377.79z M67.34,486.88v-50.254c0-4.552,1.169-8.875,3.252-12.651
	l43.958,43.958c3.331,3.331,5.166,7.76,5.166,12.471v15.562h-43.29C71.415,495.966,67.34,491.89,67.34,486.88z M444.659,486.88
	c0,5.01-4.076,9.086-9.086,9.086h-43.29v-15.562c0-4.711,1.834-9.14,5.166-12.471l43.958-43.958
	c2.082,3.776,3.252,8.099,3.252,12.651V486.88z M429.715,412.993l-43.603,43.602c-6.36,6.36-9.862,14.815-9.862,23.809v15.562
	H135.749v-15.562c0-8.994-3.502-17.449-9.862-23.809l-43.603-43.602c1.549-0.735,3.177-1.344,4.892-1.772l71.541-17.885
	l42.82,57.093c2.714,3.619,6.68,5.926,11.167,6.496c0.713,0.09,1.424,0.135,2.129,0.135c3.739,0,7.336-1.257,10.307-3.633
	l22.842-18.275v34.627c0,4.427,3.589,8.017,8.017,8.017s8.017-3.589,8.017-8.017V435.15l22.842,18.274
	c2.972,2.377,6.569,3.633,10.307,3.633c0.707,0,1.417-0.045,2.129-0.135c4.487-0.57,8.454-2.876,11.167-6.496l42.82-57.093
	l71.541,17.885C426.538,411.65,428.166,412.258,429.715,412.993z M297.635,440.808c-0.034,0.045-0.136,0.181-0.36,0.21
	c-0.224,0.03-0.357-0.078-0.401-0.112l-27.305-21.845l62.005-41.336c0.212-0.142,0.495-0.112,0.674,0.066l7.229,7.229
	L297.635,440.808z M316.392,368.575l-60.392,40.262l-60.392-40.262v-27.367l12.609,9.007c7.203,5.145,15.689,7.864,24.541,7.864
	h15.226v26.188c0,4.427,3.589,8.017,8.017,8.017s8.017-3.589,8.017-8.017v-26.188h15.226c8.852,0,17.337-2.719,24.541-7.864
	l12.609-9.007V368.575z M357.307,290.263c0.494-3.075,0.772-6.201,0.772-9.36v-76.744h9.077c0.005,0,0.011,0.001,0.016,0.001
	c0.005,0,0.011-0.001,0.016-0.001h32.908C395.116,237.151,379.932,267.308,357.307,290.263z M409.183,188.125
	c-0.051,0-0.102-0.001-0.153,0h-37.29l-84.706-143.35l169.411,143.35H409.183z"/>
</svg>