<?xml version="1.0" encoding="iso-8859-1"?>
<!-- Uploaded to: SVG Repo, www.svgrepo.com, Generator: SVG Repo Mixer Tools -->
<!DOCTYPE svg PUBLIC "-//W3C//DTD SVG 1.1//EN" "http://www.w3.org/Graphics/SVG/1.1/DTD/svg11.dtd">
<svg height="800px" width="800px" version="1.1" id="Capa_1" xmlns="http://www.w3.org/2000/svg" xmlns:xlink="http://www.w3.org/1999/xlink" 
	 viewBox="0 0 297.5 297.5" xml:space="preserve">
<g id="XMLID_41_">
	<g>
		<path style="fill:#F5B543;" d="M193.725,111.19v23.529H79.245V111.19c6.12,2.84,12.86,4.39,19.82,4.39
			c5.34,0,10.54-0.88,15.529-2.62c7.03,1.74,14.38,2.62,21.891,2.62c7.5,0,14.85-0.88,21.89-2.62c4.98,1.74,10.19,2.62,15.52,2.62
			C180.865,115.58,187.605,114.03,193.725,111.19z"/>
		<path style="fill:#A97819;" d="M193.725,155.17v41.91c0,25.36-20.63,45.99-46,45.99h-22.489c-25.36,0-45.99-20.63-45.99-45.99
			v-41.91H193.725z"/>
		<path d="M229.245,91.28c19.59,0,35.52,15.939,35.52,35.52c0,19.59-15.93,35.521-35.52,35.521c-5.39,0-10.5-1.21-15.08-3.36v38.12
			c0,36.63-30.82,66.439-67.46,66.439v13.29h23.51c5.641,0,10.22,4.57,10.22,10.221c0,5.64-4.579,10.22-10.22,10.22h-67.46
			c-5.649,0-10.22-4.58-10.22-10.22c0-5.65,4.57-10.221,10.22-10.221h23.51v-13.29c-36.64,0-67.47-29.809-67.47-66.439V96.45
			c-14.61-1.45-26.06-13.92-26.06-29.04c0-15.941,12.72-28.941,28.449-29.2c8.841-11.729,22.61-18.83,37.421-18.979
			c8.93-11.851,22.93-18.98,37.88-18.98c14.949,0,28.939,7.13,37.88,18.98c14.8,0.149,28.569,7.25,37.42,18.979
			c15.73,0.26,28.45,13.26,28.45,29.2c0,9.88-4.891,18.62-12.351,23.91C228.335,91.3,228.785,91.28,229.245,91.28z M244.325,126.8
			c0-8.31-6.771-15.069-15.08-15.069c-8.311,0-15.08,6.76-15.08,15.069c0,8.32,6.77,15.08,15.08,15.08
			C237.555,141.88,244.325,135.12,244.325,126.8z M219.795,67.41c0-4.83-3.81-8.76-8.49-8.76c-0.649,0-1.34,0.09-2.09,0.29
			c-4.54,1.19-9.3-0.881-11.55-4.99c-4.8-8.811-13.91-14.28-23.77-14.28c-1.12,0-2.27,0.08-3.52,0.24
			c-4.16,0.54-8.21-1.5-10.25-5.16c-4.83-8.67-13.89-14.06-23.64-14.06c-9.761,0-18.82,5.39-23.65,14.06
			c-2.03,3.66-6.1,5.71-10.24,5.16c-1.25-0.16-2.399-0.24-3.529-0.24c-9.851,0-18.96,5.47-23.771,14.28
			c-2.25,4.109-7,6.17-11.54,4.99c-0.76-0.19-1.439-0.29-2.1-0.29c-4.681,0-8.48,3.93-8.48,8.76c0,4.82,3.8,8.75,8.48,8.75
			c0.68,0,1.359-0.09,2.1-0.28c4.53-1.189,9.29,0.87,11.54,4.99c4.811,8.8,13.92,14.27,23.771,14.27c3.75,0,7.38-0.77,10.81-2.279
			c2.21-0.98,4.69-1.141,7-0.46c6.21,1.819,12.8,2.739,19.61,2.739c6.8,0,13.399-0.92,19.609-2.739c0.94-0.271,1.9-0.41,2.87-0.41
			c1.41,0,2.82,0.29,4.13,0.87c3.431,1.51,7.061,2.279,10.801,2.279c9.859,0,18.97-5.47,23.77-14.27c2.25-4.12,7.01-6.18,11.55-4.99
			c0.73,0.18,1.431,0.28,2.09,0.28C215.985,76.16,219.795,72.23,219.795,67.41z M193.725,197.08v-41.91H79.245v41.91
			c0,25.36,20.63,45.99,45.99,45.99h22.489C173.095,243.07,193.725,222.44,193.725,197.08z M193.725,134.72V111.19
			c-6.119,2.84-12.859,4.39-19.829,4.39c-5.33,0-10.54-0.88-15.52-2.62c-7.04,1.74-14.39,2.62-21.89,2.62
			c-7.511,0-14.86-0.88-21.891-2.62c-4.989,1.74-10.189,2.62-15.529,2.62c-6.96,0-13.7-1.55-19.82-4.39v23.529H193.725z"/>
	</g>
	<g>
	</g>
</g>
</svg>